<svg width="407" height="407" viewBox="0 0 407 407" fill="none" xmlns="http://www.w3.org/2000/svg">
<path d="M203.5 407C315.89 407 407 315.89 407 203.5C407 91.1101 315.89 0 203.5 0C91.1101 0 0 91.1101 0 203.5C0 315.89 91.1101 407 203.5 407Z" fill="url(#paint0_linear_286_2670)"/>
<path opacity="0.05" d="M203.5 314.357C197.212 314.357 191.301 311.904 186.864 307.468L103.043 223.626C102.188 222.792 81.4004 202.126 81.4004 179.131C81.4004 142.664 111.071 112.993 147.538 112.993C172.233 112.993 193.081 127.92 203.5 137.027C213.92 127.92 234.768 112.993 259.463 112.993C295.93 112.993 325.6 142.664 325.6 179.131C325.6 202.116 304.782 222.822 303.897 223.687L220.137 307.458C215.69 311.904 209.789 314.357 203.5 314.357Z" fill="black"/>
<path opacity="0.05" d="M204.798 309.308C199.873 309.308 195.243 307.395 191.753 303.905L107.932 220.063C107.138 219.28 87.7852 199.998 87.7852 179.16C87.7852 145.491 115.166 118.11 148.835 118.11C174.761 118.11 196.342 135.886 204.798 143.944C213.253 135.886 234.834 118.11 260.76 118.11C294.429 118.11 321.81 145.491 321.81 179.16C321.81 199.998 302.457 219.28 301.633 220.084L217.842 303.895C214.352 307.395 209.722 309.308 204.798 309.308Z" fill="black"/>
<path d="M203.499 151.15C203.499 151.15 228.55 123.168 259.462 123.168C290.373 123.168 315.424 148.565 315.424 179.131C315.424 198.077 296.763 216.432 296.763 216.432L212.942 300.274C207.732 305.484 199.266 305.484 194.057 300.274L110.235 216.432C110.235 216.432 91.5742 198.067 91.5742 179.131C91.5742 148.565 116.625 123.168 147.537 123.168C178.448 123.168 203.499 151.15 203.499 151.15Z" fill="white"/>
<defs>
<linearGradient id="paint0_linear_286_2670" x1="4.1107" y1="4.1107" x2="353.948" y2="353.948" gradientUnits="userSpaceOnUse">
<stop offset="0.002" stop-color="#F44F78"/>
<stop offset="0.397" stop-color="#E4305D"/>
<stop offset="0.763" stop-color="#D81B4A"/>
<stop offset="1" stop-color="#D41343"/>
</linearGradient>
</defs>
</svg>
